<svg width="224" height="65" viewBox="0 0 224 65" fill="none" xmlns="http://www.w3.org/2000/svg">
    <path d="M103.442 64.9868H12.0451C5.46813 64.9868 0.251953 59.417 0.251953 52.6867V12.305C0.251953 5.57476 5.46813 0.00488281 12.0451 0.00488281H103.215C109.792 0.00488281 115.008 5.57476 115.008 12.305V52.6867C115.235 59.417 110.019 64.9868 103.442 64.9868Z" fill="white" />
    <path d="M33.136 25.766C37.445 26.9263 40.8469 30.8717 40.8469 36.2095C40.8469 45.0285 34.2699 49.9021 24.0644 49.9021H7.73547L12.2713 6.27136H27.693C35.4039 6.27136 39.9397 10.4488 39.9397 16.2507C39.9397 21.1244 37.2182 24.3735 33.136 25.766ZM16.5803 42.7077H24.2912C29.7341 42.7077 33.136 39.9227 33.136 35.5132C33.136 31.8 30.6413 29.9434 25.6519 29.9434H17.941L16.5803 42.7077ZM26.5591 13.4658H19.5286L18.3946 23.4452H25.1983C29.2806 23.4452 31.7753 21.1244 31.7753 17.6432C32.002 14.8583 30.1877 13.4658 26.5591 13.4658Z" fill="#20415B" />
    <path d="M54.4556 50.5977C51.0537 50.5977 48.3323 49.4373 46.0644 46.8845C44.0232 44.5637 43.1161 40.8504 43.5697 35.9768L45.384 17.4105H53.3217L51.5073 35.7447C51.0537 41.0825 53.5484 43.4033 57.1771 43.4033C59.445 43.4033 61.4861 42.475 62.8468 41.0825C64.4344 39.458 65.3415 37.6013 65.7951 35.9768L67.8362 17.6426H75.7739L72.372 50.1336H64.4344L65.1148 43.8675C64.4344 45.2599 63.3004 46.8845 61.2593 48.509C59.6718 49.9015 57.1771 50.5977 54.4556 50.5977Z" fill="#20415B" />
    <path d="M93.4639 40.1542L105.484 17.4105H113.421L89.6084 61.7375H81.6708L88.7013 48.7411L78.2689 17.4105H85.9798L93.4639 40.1542Z" fill="#20415B" />
    <path d="M140.636 25.0697L134.059 26.6942C133.378 24.6055 131.791 23.4451 129.75 23.4451C127.482 23.4451 125.894 25.0697 125.894 26.9263C125.894 28.3188 126.801 29.2471 128.389 29.9433L132.018 31.3358C134.739 32.4962 135.873 32.9603 137.687 34.3528C139.502 35.7453 140.409 37.6019 140.409 40.1548C140.409 43.6359 139.048 46.1888 136.553 48.0454C134.059 49.9021 130.884 50.8304 127.482 50.8304C124.534 50.8304 121.812 50.1341 119.544 48.5096C117.276 46.885 115.916 44.5642 115.689 41.7793L122.039 40.1548C122.719 43.1718 124.534 44.5642 127.709 44.5642C130.657 44.5642 132.698 42.9397 132.698 40.6189C132.698 39.2264 131.791 38.0661 129.977 37.6019L126.348 36.2094C121.132 34.3528 118.41 31.1037 118.41 26.9263C118.41 24.1413 119.544 21.8206 121.812 19.9639C124.08 18.1073 126.801 17.179 129.977 17.179C135.419 16.9469 139.275 19.9639 140.636 25.0697Z" fill="white" />
    <path d="M159.913 16.9469C162.407 16.9469 164.675 17.4111 166.943 18.5714C169.211 19.7318 171.025 21.3564 172.613 23.9093C174.201 26.23 175.108 29.2471 175.108 32.4962C175.108 37.6019 173.293 42.0114 169.665 45.4925C166.036 48.9737 161.954 50.8303 156.964 50.8303C153.109 50.8303 149.48 49.4379 146.532 46.885C143.357 44.1001 141.77 40.3868 141.77 35.5132C141.77 30.4074 143.584 25.998 146.986 22.5168C150.841 18.5714 154.923 16.9469 159.913 16.9469ZM157.418 43.4038C160.14 43.4038 162.407 42.4755 164.449 40.3868C166.49 38.2981 167.397 35.7453 167.397 32.2641C167.397 29.4791 166.716 27.6225 164.902 25.998C163.088 24.3734 161.5 23.6772 159.232 23.6772C156.511 23.6772 154.243 24.6055 152.202 26.6942C150.161 28.5508 149.254 31.3358 149.254 34.8169C149.254 37.6019 149.934 39.4585 151.748 41.0831C153.563 42.7076 155.377 43.4038 157.418 43.4038Z" fill="white" />
    <path d="M180.324 5.80701H188.262L183.726 49.9019H175.788L180.324 5.80701Z" fill="white" />
    <path d="M213.888 21.8204L215.702 5.80701H223.413L218.877 49.9019H211.167L211.62 45.2603C211.393 46.4207 210.259 47.5811 208.445 48.7415C206.631 49.9019 204.363 50.5981 201.868 50.5981C199.6 50.5981 197.332 50.134 195.064 48.9736C190.755 46.8849 187.354 42.0112 187.354 35.513C187.354 30.4073 189.168 25.9978 192.343 22.2846C195.745 18.5713 199.827 16.7147 204.59 16.7147C206.404 16.7147 207.991 17.1788 209.579 17.8751C212.754 19.2676 213.888 20.8921 213.888 21.8204ZM205.043 23.9091C202.322 23.9091 200.054 25.0695 198.013 26.9261C196.198 29.0149 195.291 31.5677 195.291 34.8168C195.291 40.3867 198.92 43.4037 203.456 43.4037C205.95 43.4037 207.991 42.4754 210.033 40.6188C212.074 38.7621 212.981 35.9772 212.981 32.2639C213.208 26.9261 209.579 23.9091 205.043 23.9091Z" fill="white" />
</svg>